<?xml version="1.0" encoding="UTF-8" standalone="no"?>
<!DOCTYPE svg PUBLIC "-//W3C//DTD SVG 1.1//EN" "http://www.w3.org/Graphics/SVG/1.1/DTD/svg11.dtd">
<svg width="100%" height="100%" viewBox="0 0 342 342" version="1.1" xmlns="http://www.w3.org/2000/svg" xmlns:xlink="http://www.w3.org/1999/xlink" xml:space="preserve" xmlns:serif="http://www.serif.com/" style="fill-rule:evenodd;clip-rule:evenodd;stroke-linejoin:round;stroke-miterlimit:2;">
    <g transform="matrix(1,0,0,1,-853,-120)">
        <path d="M1194.99,243.117C1194.99,175.167 1139.83,120 1071.88,120L976.117,120C908.167,120 853,175.167 853,243.117L853,338.875C853,406.826 908.167,461.993 976.117,461.993L1071.88,461.993C1139.83,461.993 1194.99,406.826 1194.99,338.875L1194.99,243.117ZM1024,270.393C1031.21,257.621 1044.9,248.992 1060.6,248.992C1099.96,248.992 1106.26,305.395 1177.36,282.236C1190.67,277.9 1130.74,333 1060.6,333C1044.9,333 1031.21,324.371 1024,311.6C1016.79,324.371 1003.09,333 987.392,333C917.257,333 857.318,277.9 870.631,282.236C941.732,305.395 948.028,248.992 987.392,248.992C1003.09,248.992 1016.79,257.621 1024,270.393Z" style="fill:white;"/>
    </g>
</svg>
